<svg width="100%" height="100%" viewBox="0 0 56 56" fill="none" xmlns="http://www.w3.org/2000/svg">
<g clip-path="url(#clip0_798_2256)">
<path d="M19.5461 11.6496L16.8794 0.323242H16.3799H13.768H13.2669L10.6002 11.6466L7.84663 0.323242H4.23413L8.75128 18.4086H9.23711H11.7378H12.3638L15.0732 7.34873L17.7825 18.4086H18.4085H20.9092H21.3966L25.9122 0.323242H22.3393L19.5461 11.6496Z" fill="white"/>
<path d="M40.4078 27.4521V31.0692H44.0234H47.6405V34.6863H44.0234H40.4078H36.7908V38.3034H40.4078H44.0234H47.6405L51.256 34.6863V31.0692L47.6405 27.4521H44.0234H40.4078Z" fill="white"/>
<path d="M51.256 23.8339L47.6405 20.2168H36.7908V23.8339H40.4078H44.0234H47.6405V27.4509H51.256V23.8339Z" fill="white"/>
<path d="M47.6388 5.75H29.5535V7.5593H47.6388V5.75Z" fill="white"/>
<g clip-path="url(#clip1_798_2256)">
<path d="M47.6967 5.84277H45.8875V14.8862H47.6967V5.84277Z" fill="white"/>
</g>
<path d="M33.1708 22.0254H15.0854V23.8347H33.1708V22.0254Z" fill="white"/>
<path d="M16.8947 23.835H15.0854V32.8784H16.8947V23.835Z" fill="white"/>
<path d="M8.11768 36.4551H15.685C17.4935 36.4551 19.0879 36.8603 20.4681 37.6708C21.8641 38.4629 22.9429 39.5866 23.7044 41.0418C24.4818 42.4971 24.8704 44.1918 24.8704 46.126C24.8704 48.0602 24.4818 49.7549 23.7044 51.2101C22.9429 52.6654 21.8641 53.7982 20.4681 54.6087C19.0879 55.4008 17.4935 55.7969 15.685 55.7969H8.11768V36.4551ZM15.4946 52.1219C17.1604 52.1219 18.485 51.5877 19.4686 50.5193C20.4681 49.4325 20.9678 47.9681 20.9678 46.126C20.9678 44.2839 20.4681 42.8287 19.4686 41.7603C18.485 40.6734 17.1604 40.13 15.4946 40.13H11.9727V52.1219H15.4946Z" fill="white"/>
</g>
<defs>
<clipPath id="clip0_798_2256">
<rect width="56" height="56" fill="white"/>
</clipPath>
<clipPath id="clip1_798_2256">
<rect width="1.8093" height="9.04344" fill="white" transform="translate(45.8875 5.84277)"/>
</clipPath>
</defs>
</svg>
