<svg width="50" height="50" viewBox="0 0 50 50" fill="none" xmlns="http://www.w3.org/2000/svg">
<g clip-path="url(#clip0_1049_680)">
<path d="M24.9998 8.33341C29.0207 8.33341 35.4165 11.2501 35.4165 19.0626C35.4165 23.5626 31.8332 28.7917 24.9998 34.3126C18.1665 28.7917 14.5832 23.5417 14.5832 19.0626C14.5832 11.2501 20.979 8.33341 24.9998 8.33341ZM24.9998 4.16675C18.1873 4.16675 10.4165 9.29175 10.4165 19.0626C10.4165 25.5626 15.2707 32.4167 24.9998 39.5834C34.729 32.4167 39.5832 25.5626 39.5832 19.0626C39.5832 9.29175 31.8123 4.16675 24.9998 4.16675Z" fill="#7D7D7D"/>
<path d="M24.9998 14.5833C22.7082 14.5833 20.8332 16.4583 20.8332 18.7499C20.8332 21.0416 22.7082 22.9166 24.9998 22.9166C26.1049 22.9166 27.1647 22.4776 27.9461 21.6962C28.7275 20.9148 29.1665 19.855 29.1665 18.7499C29.1665 17.6448 28.7275 16.585 27.9461 15.8036C27.1647 15.0222 26.1049 14.5833 24.9998 14.5833ZM10.4165 41.6666H39.5832V45.8333H10.4165V41.6666Z" fill="#7D7D7D"/>
</g>
<defs>
<clipPath id="clip0_1049_680">
<rect width="50" height="50" fill="white"/>
</clipPath>
</defs>
</svg>
