<svg width="1440" height="713" viewBox="0 0 1440 713" fill="none" xmlns="http://www.w3.org/2000/svg">
<mask id="path-1-outside-1_1049_1929" maskUnits="userSpaceOnUse" x="-222" y="0" width="1806" height="713" fill="black">
<rect fill="white" x="-222" width="1806" height="713"/>
<path d="M-220.453 698L-41.0867 15.6271H183.122L362.488 698H229.913L192.87 547.878H-50.8349L-87.878 698H-220.453ZM-20.6155 428.95H162.65L79.7908 96.537H62.2441L-20.6155 428.95ZM444.167 698V15.6271H740.512C783.404 15.6271 820.772 23.1007 852.616 38.0479C884.46 52.9951 909.156 74.1162 926.702 101.411C944.249 128.706 953.022 160.875 953.022 197.918V209.616C953.022 250.558 943.274 283.702 923.778 309.047C904.282 334.393 880.236 352.914 851.641 364.612V382.159C877.637 383.459 897.783 392.557 912.08 409.454C926.377 425.701 933.526 447.472 933.526 474.767V698H804.85V493.288C804.85 477.691 800.626 465.018 792.177 455.27C784.379 445.522 771.056 440.648 752.21 440.648H572.843V698H444.167ZM572.843 323.67H726.865C757.409 323.67 781.129 315.546 798.026 299.299C815.573 282.402 824.346 260.307 824.346 233.012V223.263C824.346 195.969 815.898 174.198 799.001 157.951C782.104 141.054 758.059 132.605 726.865 132.605H572.843V323.67ZM1296 711.647C1249.21 711.647 1206.64 701.249 1168.3 680.453C1130.6 659.007 1100.39 628.138 1077.64 587.846C1055.54 546.903 1044.5 497.187 1044.5 438.698V274.929C1044.5 187.195 1069.19 119.933 1118.58 73.1414C1167.97 25.7002 1234.91 1.97965 1319.39 1.97965C1403.23 1.97965 1467.89 24.4005 1513.38 69.2421C1559.52 113.434 1582.6 173.548 1582.6 249.584V253.483H1455.87V245.684C1455.87 221.639 1450.67 199.868 1440.27 180.371C1430.52 160.875 1415.58 145.603 1395.43 134.555C1375.28 122.857 1349.94 117.008 1319.39 117.008C1273.9 117.008 1238.16 130.981 1212.16 158.925C1186.17 186.87 1173.17 224.888 1173.17 272.979V440.648C1173.17 488.089 1186.17 526.432 1212.16 555.677C1238.16 584.271 1274.55 598.569 1321.34 598.569C1368.14 598.569 1402.25 586.221 1423.7 561.525C1445.15 536.83 1455.87 505.636 1455.87 467.943V458.195H1294.05V349.015H1582.6V698H1463.67V632.687H1446.12C1441.57 643.735 1434.1 655.433 1423.7 667.781C1413.95 680.128 1399 690.526 1378.86 698.975C1358.71 707.423 1331.09 711.647 1296 711.647Z"/>
</mask>
<path d="M-220.453 698L-221.603 697.698L-221.995 699.189H-220.453V698ZM-41.0867 15.6271V14.4383H-42.0034L-42.2364 15.3249L-41.0867 15.6271ZM183.122 15.6271L184.271 15.3249L184.038 14.4383H183.122V15.6271ZM362.488 698V699.189H364.03L363.638 697.698L362.488 698ZM229.913 698L228.759 698.285L228.982 699.189H229.913V698ZM192.87 547.878L194.024 547.593L193.801 546.689H192.87V547.878ZM-50.8349 547.878V546.689H-51.766L-51.9891 547.593L-50.8349 547.878ZM-87.878 698V699.189H-86.9468L-86.7238 698.285L-87.878 698ZM-20.6155 428.95L-21.769 428.663L-22.137 430.139H-20.6155V428.95ZM162.65 428.95V430.139H164.172L163.804 428.663L162.65 428.95ZM79.7908 96.537L80.9443 96.2495L80.7196 95.3482H79.7908V96.537ZM62.2441 96.537V95.3482H61.3152L61.0906 96.2495L62.2441 96.537ZM-220.453 698L-219.304 698.302L-39.9369 15.9293L-41.0867 15.6271L-42.2364 15.3249L-221.603 697.698L-220.453 698ZM-41.0867 15.6271V16.8159H183.122V15.6271V14.4383H-41.0867V15.6271ZM183.122 15.6271L181.972 15.9293L361.338 698.302L362.488 698L363.638 697.698L184.271 15.3249L183.122 15.6271ZM362.488 698V696.811H229.913V698V699.189H362.488V698ZM229.913 698L231.067 697.715L194.024 547.593L192.87 547.878L191.716 548.163L228.759 698.285L229.913 698ZM192.87 547.878V546.689H-50.8349V547.878V549.067H192.87V547.878ZM-50.8349 547.878L-51.9891 547.593L-89.0322 697.715L-87.878 698L-86.7238 698.285L-49.6807 548.163L-50.8349 547.878ZM-87.878 698V696.811H-220.453V698V699.189H-87.878V698ZM-20.6155 428.95V430.139H162.65V428.95V427.761H-20.6155V428.95ZM162.65 428.95L163.804 428.663L80.9443 96.2495L79.7908 96.537L78.6373 96.8246L161.497 429.238L162.65 428.95ZM79.7908 96.537V95.3482H62.2441V96.537V97.7258H79.7908V96.537ZM62.2441 96.537L61.0906 96.2495L-21.769 428.663L-20.6155 428.95L-19.462 429.238L63.3976 96.8246L62.2441 96.537ZM444.167 698H442.978V699.189H444.167V698ZM444.167 15.6271V14.4383H442.978V15.6271H444.167ZM852.616 38.0479L852.111 39.1241L852.616 38.0479ZM926.702 101.411L927.702 100.768L926.702 101.411ZM923.778 309.047L924.72 309.772L923.778 309.047ZM851.641 364.612L851.191 363.512L850.453 363.814V364.612H851.641ZM851.641 382.159H850.453V383.29L851.582 383.346L851.641 382.159ZM912.08 409.454L911.172 410.222L911.18 410.23L911.188 410.239L912.08 409.454ZM933.526 698V699.189H934.715V698H933.526ZM804.85 698H803.661V699.189H804.85V698ZM792.177 455.27L791.249 456.013L791.264 456.031L791.279 456.049L792.177 455.27ZM572.843 440.648V439.459H571.654V440.648H572.843ZM572.843 698V699.189H574.032V698H572.843ZM572.843 323.67H571.654V324.859H572.843V323.67ZM798.026 299.299L798.85 300.156L798.851 300.156L798.026 299.299ZM799.001 157.951L798.161 158.791L798.169 158.799L798.177 158.808L799.001 157.951ZM572.843 132.605V131.417H571.654V132.605H572.843ZM444.167 698H445.356V15.6271H444.167H442.978V698H444.167ZM444.167 15.6271V16.8159H740.512V15.6271V14.4383H444.167V15.6271ZM740.512 15.6271V16.8159C783.267 16.8159 820.456 24.2655 852.111 39.1241L852.616 38.0479L853.121 36.9718C821.088 21.9359 783.541 14.4383 740.512 14.4383V15.6271ZM852.616 38.0479L852.111 39.1241C883.77 53.9846 908.287 74.963 925.702 102.054L926.702 101.411L927.702 100.768C910.025 73.2695 885.15 52.0057 853.121 36.9718L852.616 38.0479ZM926.702 101.411L925.702 102.054C943.109 129.131 951.834 161.07 951.834 197.918H953.022H954.211C954.211 160.68 945.389 128.281 927.702 100.768L926.702 101.411ZM953.022 197.918H951.834V209.616H953.022H954.211V197.918H953.022ZM953.022 209.616H951.834C951.834 250.37 942.132 283.237 922.836 308.323L923.778 309.047L924.72 309.772C944.416 284.167 954.211 250.746 954.211 209.616H953.022ZM923.778 309.047L922.836 308.323C903.463 333.508 879.585 351.896 851.191 363.512L851.641 364.612L852.091 365.712C880.887 353.932 905.1 335.278 924.72 309.772L923.778 309.047ZM851.641 364.612H850.453V382.159H851.641H852.83V364.612H851.641ZM851.641 382.159L851.582 383.346C877.312 384.633 897.125 393.62 911.172 410.222L912.08 409.454L912.988 408.686C898.44 391.493 877.962 382.285 851.701 380.972L851.641 382.159ZM912.08 409.454L911.188 410.239C925.248 426.217 932.337 447.683 932.337 474.767H933.526H934.715C934.715 447.261 927.507 425.185 912.973 408.668L912.08 409.454ZM933.526 474.767H932.337V698H933.526H934.715V474.767H933.526ZM933.526 698V696.811H804.85V698V699.189H933.526V698ZM804.85 698H806.039V493.288H804.85H803.661V698H804.85ZM804.85 493.288H806.039C806.039 477.468 801.749 464.499 793.076 454.492L792.177 455.27L791.279 456.049C799.503 465.538 803.661 477.915 803.661 493.288H804.85ZM792.177 455.27L793.106 454.528C784.986 444.378 771.229 439.459 752.21 439.459V440.648V441.837C770.883 441.837 783.772 446.667 791.249 456.013L792.177 455.27ZM752.21 440.648V439.459H572.843V440.648V441.837H752.21V440.648ZM572.843 440.648H571.654V698H572.843H574.032V440.648H572.843ZM572.843 698V696.811H444.167V698V699.189H572.843V698ZM572.843 323.67V324.859H726.865V323.67V322.481H572.843V323.67ZM726.865 323.67V324.859C757.62 324.859 781.671 316.675 798.85 300.156L798.026 299.299L797.202 298.442C780.588 314.418 757.198 322.481 726.865 322.481V323.67ZM798.026 299.299L798.851 300.156C816.66 283.007 825.535 260.587 825.535 233.012H824.346H823.158C823.158 260.026 814.487 281.798 797.202 298.443L798.026 299.299ZM824.346 233.012H825.535V223.263H824.346H823.158V233.012H824.346ZM824.346 223.263H825.535C825.535 195.703 816.994 173.602 799.825 157.094L799.001 157.951L798.177 158.808C814.802 174.793 823.158 196.234 823.158 223.263H824.346ZM799.001 157.951L799.842 157.11C782.66 139.928 758.274 131.417 726.865 131.417V132.605V133.794C757.844 133.794 781.549 142.179 798.161 158.791L799.001 157.951ZM726.865 132.605V131.417H572.843V132.605V133.794H726.865V132.605ZM572.843 132.605H571.654V323.67H572.843H574.032V132.605H572.843ZM1168.3 680.453L1167.71 681.487L1167.72 681.492L1167.73 681.498L1168.3 680.453ZM1077.64 587.846L1076.59 588.41L1076.6 588.42L1076.6 588.43L1077.64 587.846ZM1118.58 73.1414L1119.4 74.0044L1119.41 73.9988L1118.58 73.1414ZM1513.38 69.2421L1512.55 70.0888L1512.55 70.0948L1512.56 70.1007L1513.38 69.2421ZM1582.6 253.483V254.672H1583.78V253.483H1582.6ZM1455.87 253.483H1454.68V254.672H1455.87V253.483ZM1440.27 180.371L1439.21 180.903L1439.22 180.917L1439.22 180.931L1440.27 180.371ZM1395.43 134.555L1394.83 135.583L1394.85 135.59L1394.86 135.597L1395.43 134.555ZM1212.16 158.925L1213.03 159.735L1212.16 158.925ZM1212.16 555.677L1211.28 556.466L1211.28 556.476L1212.16 555.677ZM1423.7 561.525L1422.8 560.746L1423.7 561.525ZM1455.87 458.195H1457.06V457.006H1455.87V458.195ZM1294.05 458.195H1292.86V459.383H1294.05V458.195ZM1294.05 349.015V347.826H1292.86V349.015H1294.05ZM1582.6 349.015H1583.78V347.826H1582.6V349.015ZM1582.6 698V699.189H1583.78V698H1582.6ZM1463.67 698H1462.48V699.189H1463.67V698ZM1463.67 632.687H1464.86V631.498H1463.67V632.687ZM1446.12 632.687V631.498H1445.32L1445.02 632.235L1446.12 632.687ZM1423.7 667.781L1422.79 667.015L1422.78 667.029L1422.77 667.044L1423.7 667.781ZM1378.86 698.975L1378.4 697.879L1378.86 698.975ZM1296 711.647V710.459C1249.39 710.459 1207.02 700.103 1168.86 679.408L1168.3 680.453L1167.73 681.498C1206.26 702.396 1249.02 712.836 1296 712.836V711.647ZM1168.3 680.453L1168.89 679.42C1131.39 658.088 1101.32 627.379 1078.67 587.261L1077.64 587.846L1076.6 588.43C1099.45 628.897 1129.82 659.927 1167.71 681.487L1168.3 680.453ZM1077.64 587.846L1078.69 587.281C1056.7 546.551 1045.68 497.04 1045.68 438.698H1044.5H1043.31C1043.31 497.335 1054.38 547.255 1076.59 588.41L1077.64 587.846ZM1044.5 438.698H1045.68V274.929H1044.5H1043.31V438.698H1044.5ZM1044.5 274.929H1045.68C1045.68 187.422 1070.31 120.511 1119.4 74.0044L1118.58 73.1414L1117.76 72.2784C1068.07 119.355 1043.31 186.968 1043.31 274.929H1044.5ZM1118.58 73.1414L1119.41 73.9988C1168.53 26.8174 1235.14 3.16844 1319.39 3.16844V1.97964V0.79084C1234.68 0.79084 1167.42 24.583 1117.76 72.284L1118.58 73.1414ZM1319.39 1.97964V3.16844C1403.02 3.16844 1467.34 25.5284 1512.55 70.0888L1513.38 69.2421L1514.22 68.3955C1468.44 23.2726 1403.44 0.79084 1319.39 0.79084V1.97964ZM1513.38 69.2421L1512.56 70.1007C1558.42 114.026 1581.41 173.805 1581.41 249.584H1582.6H1583.78C1583.78 173.29 1560.62 112.842 1514.21 68.3836L1513.38 69.2421ZM1582.6 249.584H1581.41V253.483H1582.6H1583.78V249.584H1582.6ZM1582.6 253.483V252.294H1455.87V253.483V254.672H1582.6V253.483ZM1455.87 253.483H1457.06V245.684H1455.87H1454.68V253.483H1455.87ZM1455.87 245.684H1457.06C1457.06 221.461 1451.82 199.495 1441.32 179.812L1440.27 180.371L1439.22 180.931C1449.52 200.24 1454.68 221.816 1454.68 245.684H1455.87ZM1440.27 180.371L1441.33 179.84C1431.47 160.115 1416.35 144.67 1396 133.513L1395.43 134.555L1394.86 135.597C1414.8 146.536 1429.57 161.635 1439.21 180.903L1440.27 180.371ZM1395.43 134.555L1396.03 133.527C1375.65 121.696 1350.08 115.819 1319.39 115.819V117.008V118.197C1349.79 118.197 1374.92 124.018 1394.83 135.583L1395.43 134.555ZM1319.39 117.008V115.819C1273.64 115.819 1237.56 129.883 1211.29 158.116L1212.16 158.925L1213.03 159.735C1238.76 132.078 1274.16 118.197 1319.39 118.197V117.008ZM1212.16 158.925L1211.29 158.116C1185.04 186.334 1171.98 224.669 1171.98 272.979H1173.17H1174.36C1174.36 225.107 1187.29 187.407 1213.03 159.735L1212.16 158.925ZM1173.17 272.979H1171.98V440.648H1173.17H1174.36V272.979H1173.17ZM1173.17 440.648H1171.98C1171.98 488.315 1185.05 526.96 1211.28 556.466L1212.16 555.677L1213.05 554.887C1187.29 525.904 1174.36 487.863 1174.36 440.648H1173.17ZM1212.16 555.677L1211.28 556.476C1237.55 585.37 1274.29 599.757 1321.34 599.757V598.569V597.38C1274.81 597.38 1238.77 583.172 1213.04 554.877L1212.16 555.677ZM1321.34 598.569V599.757C1368.33 599.757 1402.84 587.357 1424.6 562.305L1423.7 561.525L1422.8 560.746C1401.67 585.085 1367.94 597.38 1321.34 597.38V598.569ZM1423.7 561.525L1424.6 562.305C1446.26 537.361 1457.06 505.876 1457.06 467.943H1455.87H1454.68C1454.68 505.396 1444.03 536.299 1422.8 560.746L1423.7 561.525ZM1455.87 467.943H1457.06V458.195H1455.87H1454.68V467.943H1455.87ZM1455.87 458.195V457.006H1294.05V458.195V459.383H1455.87V458.195ZM1294.05 458.195H1295.24V349.015H1294.05H1292.86V458.195H1294.05ZM1294.05 349.015V350.204H1582.6V349.015V347.826H1294.05V349.015ZM1582.6 349.015H1581.41V698H1582.6H1583.78V349.015H1582.6ZM1582.6 698V696.811H1463.67V698V699.189H1582.6V698ZM1463.67 698H1464.86V632.687H1463.67H1462.48V698H1463.67ZM1463.67 632.687V631.498H1446.12V632.687V633.876H1463.67V632.687ZM1446.12 632.687L1445.02 632.235C1440.53 643.137 1433.14 654.73 1422.79 667.015L1423.7 667.781L1424.61 668.546C1435.06 656.135 1442.61 644.333 1447.22 633.14L1446.12 632.687ZM1423.7 667.781L1422.77 667.044C1413.18 679.184 1398.43 689.479 1378.4 697.879L1378.86 698.975L1379.32 700.071C1399.58 691.574 1414.72 681.073 1424.63 668.517L1423.7 667.781ZM1378.86 698.975L1378.4 697.879C1358.46 706.24 1331.02 710.459 1296 710.459V711.647V712.836C1331.17 712.836 1358.96 708.606 1379.32 700.071L1378.86 698.975Z" fill="white" fill-opacity="0.4" mask="url(#path-1-outside-1_1049_1929)"/>
</svg>
